<svg width="12" height="20" fill="none" xmlns="http://www.w3.org/2000/svg"><path d="M5.875 3.025c1.196 0 2.168.96 2.168 2.138 0 1.175-.972 2.134-2.168 2.134-1.196 0-2.168-.958-2.168-2.134 0-1.179.972-2.138 2.168-2.138zm0 7.298c2.888 0 5.237-2.316 5.237-5.16C11.112 2.315 8.763 0 5.875 0S.642 2.315.642 5.163c0 2.844 2.345 5.16 5.233 5.16zm2.118 4.211a9.95 9.95 0 003.04-1.243 1.5 1.5 0 00.482-2.084 1.545 1.545 0 00-2.118-.476 6.733 6.733 0 01-7.048 0 1.54 1.54 0 00-2.114.476 1.5 1.5 0 00.483 2.084 9.95 9.95 0 003.04 1.243L.828 17.418a1.498 1.498 0 000 2.137 1.547 1.547 0 002.172 0l2.874-2.833 2.878 2.833a1.543 1.543 0 002.168 0 1.498 1.498 0 000-2.137l-2.928-2.884z" fill="#F9FBFD"/></svg>