<svg width="44" height="32" fill="none" xmlns="http://www.w3.org/2000/svg"><path d="M41.439 25.72L1.648 17.212c-.306-.066-.512.563-.354 1.064C3.838 26.326 9.858 32 16.867 32h23.737c.161 0 .303-.199.35-.491l.794-4.894c.068-.415-.081-.847-.31-.895zM43.884 11.771c-.116-.345-.306-.575-.52-.629l-11-2.783c-.396-.098-.77.434-.824 1.196-.054.76.229 1.462.63 1.563l1.245.315c.182.046.319.34.319.689v2.15c0 .414-.19.737-.406.692l-2.933-.597c-.187-.036-.328-.335-.328-.69v-6.09c0-.138.021-.271.061-.385l1.282-3.648a2.5 2.5 0 00.045-1.399c-.12-.448-.356-.74-.62-.764l-15.4-1.39c-.248-.005-.487.197-.632.58 0 0-2.93 7.815-3.573 9.534-.077.206-.206.316-.338.288L.812 8.355c-.21-.041-.415.085-.57.348C.09 8.968 0 9.343 0 9.738c0 1.34.092 2.654.265 3.928.038.281.167.486.319.52l41.431 8.857c.175.037.34-.167.392-.488l1.56-9.625c.064-.39.033-.815-.083-1.159zM21.163 4.064l-.572 7.6c-.028.369-.2.632-.396.594-1.431-.274-6.806-1.347-6.806-1.347-.28-.057-.423-.662-.26-1.096l2.519-6.691c.072-.192.191-.302.316-.29l4.853.437c.216.02.376.387.346.793zm7.95 1.015l-.451 1.28c-.04.114-.062.249-.062.386v6.486c0 .413-.19.736-.405.691l-5.82-1.183c-.206-.041-.354-.4-.324-.79l.593-7.879c.026-.355.191-.614.38-.597l5.801.525c.285.025.446.63.288 1.08zm9.02 10.088c0 .414-.189.736-.405.692 0 0-1.523-.326-2.205-.479-.184-.04-.323-.338-.323-.69v-2.012c0-.42.195-.746.415-.69l2.2.556c.182.048.318.343.318.69v1.933zm4.05-.698l-.271 1.675c-.052.317-.215.522-.39.487l-1.595-.324c-.185-.038-.327-.337-.327-.692v-1.822c0-.42.195-.746.415-.69l1.867.471c.224.057.368.483.302.895z" fill="#011C40"/></svg>